<?xml version="1.0" encoding="UTF-8"?>
<svg width="410px" height="410px" viewBox="0 0 410 410" version="1.1" xmlns="http://www.w3.org/2000/svg" xmlns:xlink="http://www.w3.org/1999/xlink">
    <title>Bitcookies</title>
    <defs>
        <path d="M111.423296,184.979224 C111.651654,98.0816403 182.027448,27.7004484 268.895503,27.4949378 C273.672423,27.4949378 278.407805,27.7858059 283.060109,28.2013317 C205.579,-20.3225393 104.281514,-4.93574538 44.6920775,64.4087436 C-14.8973592,133.753233 -14.8973592,236.246767 44.6920775,305.591256 C104.281514,374.935745 205.579,390.322539 283.060109,341.798668 C278.407805,342.214194 273.672423,342.505062 268.895503,342.505062 C182.011283,342.299456 111.628832,271.893035 111.423296,184.979224 Z" id="path-1"></path>
        <filter x="-10.6%" y="-8.1%" width="121.2%" height="116.2%" filterUnits="objectBoundingBox" id="filter-3">
            <feGaussianBlur stdDeviation="10" in="SourceGraphic"></feGaussianBlur>
        </filter>
        <filter x="-300.0%" y="-300.0%" width="700.0%" height="700.0%" filterUnits="objectBoundingBox" id="filter-4">
            <feGaussianBlur stdDeviation="20" in="SourceGraphic"></feGaussianBlur>
        </filter>
        <filter x="-300.0%" y="-300.0%" width="700.0%" height="700.0%" filterUnits="objectBoundingBox" id="filter-5">
            <feGaussianBlur stdDeviation="20" in="SourceGraphic"></feGaussianBlur>
        </filter>
        <filter x="-200.0%" y="-200.0%" width="500.0%" height="500.0%" filterUnits="objectBoundingBox" id="filter-6">
            <feGaussianBlur stdDeviation="20" in="SourceGraphic"></feGaussianBlur>
        </filter>
        <filter x="-200.0%" y="-200.0%" width="500.0%" height="500.0%" filterUnits="objectBoundingBox" id="filter-7">
            <feGaussianBlur stdDeviation="20" in="SourceGraphic"></feGaussianBlur>
        </filter>
        <filter x="-200.0%" y="-200.0%" width="500.0%" height="500.0%" filterUnits="objectBoundingBox" id="filter-8">
            <feGaussianBlur stdDeviation="20" in="SourceGraphic"></feGaussianBlur>
        </filter>
        <filter x="-150.0%" y="-150.0%" width="400.0%" height="400.0%" filterUnits="objectBoundingBox" id="filter-9">
            <feGaussianBlur stdDeviation="20" in="SourceGraphic"></feGaussianBlur>
        </filter>
    </defs>
    <g id="Main" stroke="none" stroke-width="1" fill="none" fill-rule="evenodd">
        <g id="Logo" transform="translate(-95.000000, -95.000000)">
            <g id="Bitcookies" transform="translate(95.000000, 95.000000)">
                <g id="Cookies">
                    <circle id="Outside-Shadow" fill="#FCDBB6" fill-rule="nonzero" cx="205" cy="205" r="205"></circle>
                    <circle id="Outside-Circle" fill="#5D4131" fill-rule="nonzero" cx="205" cy="205" r="200"></circle>
                    <circle id="Outside-Circle-Color" fill="#FCDBB6" cx="210" cy="210" r="185"></circle>
                    <g id="Outside-Circle-Color-Shadow" transform="translate(25.000000, 25.000000)">
                        <mask id="mask-2" fill="white">
                            <use xlink:href="#path-1"></use>
                        </mask>
                        <g id="Outside-Circle-Color-Shadow-2" fill-rule="nonzero"></g>
                        <path d="M111.423296,184.979224 C111.651654,98.0816403 182.027448,27.7004484 268.895503,27.4949378 C273.672423,27.4949378 278.407805,27.7858059 283.060109,28.2013317 C205.579,-20.3225393 104.281514,-4.93574538 44.6920775,64.4087436 C-14.8973592,133.753233 -14.8973592,236.246767 44.6920775,305.591256 C104.281514,374.935745 205.579,390.322539 283.060109,341.798668 C278.407805,342.214194 273.672423,342.505062 268.895503,342.505062 C182.011283,342.299456 111.628832,271.893035 111.423296,184.979224 Z" id="Outside-Circle-Color-Shadow-1" fill="#FFCB94" fill-rule="nonzero" filter="url(#filter-3)" mask="url(#mask-2)"></path>
                    </g>
                    <circle id="Inside-Circle-Color" fill="#BC8D5C" cx="208" cy="208" r="165"></circle>
                    <path d="M195.002477,25.0000046 C126.24123,25.0000046 64.2514172,66.4229445 37.9414,129.951617 C11.6313828,193.480289 26.1830487,266.602416 74.8103664,315.218186 C123.437684,363.833957 196.563264,378.368256 260.085685,352.043151 C323.608106,325.718046 365.016314,263.718396 365,194.95715 C365,149.874718 347.088298,106.639336 315.20642,74.7650283 C283.324542,42.8907209 240.084907,24.989301 195.002477,25.0000046 L195.002477,25.0000046 Z M198.555025,349.048953 C110.765234,349.004347 39.6295192,277.808396 39.6592301,190.018597 C39.6889596,102.228798 110.872863,31.0810277 198.662665,31.0958798 C286.452466,31.1107366 357.6123,102.282592 357.6123,190.072396 C357.6123,232.249588 340.851957,272.698133 311.020609,302.514339 C281.18926,332.330545 240.732211,349.070354 198.555025,349.048953 Z" id="Inside-Circle" fill="#725342" fill-rule="nonzero"></path>
                    <animateTransform attributeName="transform" type="rotate" from="0 205 205" to="360 205 205" begin="0s" dur="9s" repeatCount="indefinite" />
                </g>
                <g id="Chocolate" transform="translate(60.000000, 80.000000)">
                    <g id="40" transform="translate(45.000000, 5.000000)">
                        <circle fill="#725342" cx="20" cy="20" r="20"></circle>
                        <circle id="20" fill="#5D4131" filter="url(#filter-4)" cx="20" cy="20" r="10"></circle>
                        <animateTransform attributeName="transform" additive="sum" type="scale" values="1;1.2;1" begin="2s" dur="3s" repeatCount="indefinite" />
                    </g>
                    <g id="40" transform="translate(105.000000, 225.000000)">
                        <circle fill="#725342" cx="20" cy="20" r="20"></circle>
                        <circle id="20" fill="#5D4131" filter="url(#filter-5)" cx="20" cy="20" r="10"></circle>
                        <animateTransform attributeName="transform" additive="sum" type="scale" values="1;1.2;1" begin="0s" dur="3s" repeatCount="indefinite" />
                    </g>
                    <g id="50" transform="translate(0.000000, 180.000000)">
                        <circle fill="#725342" cx="25" cy="25" r="25"></circle>
                        <circle id="30" fill="#5D4131" filter="url(#filter-6)" cx="25" cy="25" r="15"></circle>
                        <animateTransform attributeName="transform" additive="sum" type="scale" values="1;0.8;1" begin="4s" dur="6s" repeatCount="indefinite" />
                    </g>
                    <g id="50" transform="translate(220.000000, 200.000000)">
                        <circle fill="#725342" cx="25" cy="25" r="25"></circle>
                        <circle id="30" fill="#5D4131" filter="url(#filter-7)" cx="25" cy="25" r="15"></circle>
                        <animateTransform attributeName="transform" additive="sum" type="scale" values="1;0.8;1" begin="2s" dur="6s" repeatCount="indefinite" />
                    </g>
                    <g id="50" transform="translate(240.000000, 0.000000)">
                        <circle fill="#725342" cx="25" cy="25" r="25"></circle>
                        <circle id="30" fill="#5D4131" filter="url(#filter-8)" cx="25" cy="25" r="15"></circle>
                        <animateTransform attributeName="transform" additive="sum" type="scale" values="1;0.8;1" begin="0s" dur="6s" repeatCount="indefinite" />
                    </g>
                    <g id="60" transform="translate(135.000000, 95.000000)">
                        <circle fill="#725342" cx="30" cy="30" r="30"></circle>
                        <circle id="40" fill="#5D4131" filter="url(#filter-9)" cx="30" cy="30" r="20"></circle>
                        <animateTransform attributeName="transform" additive="sum" type="scale" values="1;1.2;1" begin="0s" dur="9s" repeatCount="indefinite" />
                    </g>
                </g>
            </g>
        </g>
    </g>
</svg>